
<svg width="648px" height="154px" viewBox="0 0 324 77" version="1.1" xmlns="http://www.w3.org/2000/svg" xmlns:xlink="http://www.w3.org/1999/xlink">
    <!-- Generator: Sketch 49.3 (51167) - http://www.bohemiancoding.com/sketch -->
    <desc>Created with Sketch.</desc>
    <defs></defs>
    <g id="Page-1" stroke="none" stroke-width="1" fill="none" fill-rule="evenodd">
        <g id="Desktop-HD" transform="translate(-555.000000, -20.000000)">
            <g id="Logo" transform="translate(552.000000, 20.000000)">
                <text id="vg_-tlas" font-family="Menlo-Regular, Menlo" font-size="64" font-weight="normal" letter-spacing="3.55555558" fill="#F0F0F0">
                    <tspan x="0.152777672" y="63">vg_ tlas</tspan>
                </text>
                <path d="M144.947603,0.839603035 C145.546736,-0.285274984 147.161267,-0.274447282 147.762806,0.839603035 C148.203132,1.65528998 148.056357,3.81361209 148.056357,4.80855767 C148.949041,4.88916391 150.055873,5.33670896 150.823437,5.79628479 C153.621796,7.4709695 155.191813,10.3511385 155.154518,13.5910278 C155.137675,15.0407369 154.637194,16.6805323 153.897301,17.9221089 C153.54119,18.5188357 152.558275,19.494532 152.579931,20.0876495 C152.579931,20.0876495 153.00582,21.651651 153.00582,21.651651 C153.00582,21.651651 154.021218,25.1405775 154.021218,25.1405775 C154.021218,25.1405775 157.285169,36.4495116 157.285169,36.4495116 C157.285169,36.4495116 158.88406,42.2242865 158.88406,42.2242865 C158.88406,42.2242865 166.222836,42.2242865 166.222836,42.2242865 C167.03732,42.2339111 167.812102,42.3301573 168.301755,43.0688473 C168.989916,44.1071037 168.341457,45.2428094 167.185299,45.4942527 C166.491123,45.6458406 165.290451,45.5929051 164.538527,45.5929051 C164.538527,45.5929051 159.96683,45.5929051 159.96683,45.5929051 C159.96683,45.5929051 162.028906,52.8113737 162.028906,52.8113737 C162.028906,52.8113737 162.786845,55.5784533 162.786845,55.5784533 C162.786845,55.5784533 162.529386,57.1424549 162.529386,57.1424549 C162.529386,57.1424549 163.094833,63.6390766 163.094833,63.6390766 C163.094833,63.6390766 161.651139,64 161.651139,64 C161.651139,64 158.787814,58.1109327 158.787814,58.1109327 C158.787814,58.1109327 157.791665,57.0173347 157.791665,57.0173347 C157.791665,57.0173347 156.307067,51.969219 156.307067,51.969219 C156.307067,51.969219 154.552979,45.5929051 154.552979,45.5929051 C154.552979,45.5929051 148.176665,45.5929051 148.176665,45.5929051 C148.176665,46.1354934 148.210351,46.9090726 147.919206,47.3842884 C147.492113,48.0856829 146.239709,48.1338061 145.736822,47.4913624 C145.369884,47.0209588 145.409585,46.1631641 145.409585,45.5929051 C145.409585,45.5929051 138.070809,45.5929051 138.070809,45.5929051 C138.070809,45.5929051 136.076105,52.6910659 136.076105,52.6910659 C136.076105,52.6910659 134.786406,57.0197409 134.786406,57.0197409 C134.786406,57.0197409 133.781835,58.1109327 133.781835,58.1109327 C133.781835,58.1109327 132.385062,60.9923048 132.385062,60.9923048 C132.385062,60.9923048 130.972648,64 130.972648,64 C130.972648,64 129.408646,63.6390766 129.408646,63.6390766 C129.408646,63.6390766 129.780398,59.9095345 129.780398,59.9095345 C129.780398,59.9095345 130.034247,56.9018392 130.034247,56.9018392 C130.034247,56.9018392 129.793631,55.5784533 129.793631,55.5784533 C129.793631,55.5784533 130.766922,52.0895268 130.766922,52.0895268 C130.766922,52.0895268 132.656957,45.5929051 132.656957,45.5929051 C132.656957,45.5929051 128.325876,45.5929051 128.325876,45.5929051 C127.599217,45.5929051 126.589834,45.6470436 125.920923,45.3534926 C124.747922,44.836169 124.725063,43.3840537 125.683917,42.6369422 C126.197631,42.2363172 126.979632,42.2254895 127.604029,42.2242865 C127.604029,42.2242865 132.536649,42.2242865 132.536649,42.2242865 C132.856668,42.2230834 133.30301,42.263988 133.552047,42.031794 C133.790257,41.8104276 133.969516,40.9959437 134.065762,40.6602849 C134.065762,40.6602849 135.012584,37.4119741 135.012584,37.4119741 C135.012584,37.4119741 138.707237,24.6593463 138.707237,24.6593463 C138.707237,24.6593463 139.720229,21.1704198 139.720229,21.1704198 C139.816475,20.8359641 140.097995,20.0359171 140.022201,19.7267261 C140.022201,19.7267261 138.793859,17.9221089 138.793859,17.9221089 C138.058778,16.6805323 137.591984,15.2801494 137.589577,13.8316434 C137.587171,12.5407406 137.548673,11.9801062 137.95411,10.7036403 C138.837169,7.92573302 141.690871,5.07925025 144.687738,4.80855767 C144.687738,3.89903063 144.566227,1.5554345 144.947603,0.839603035 Z M142.097511,9.74238095 C140.012577,12.2483926 140.505839,16.2077226 143.244045,18.0303859 C144.44231,18.8280267 145.349431,18.9002114 146.732971,18.8845714 C150.509433,18.8400575 152.760392,14.8097459 151.560923,11.4254872 C150.943744,9.68102396 149.693746,8.75224767 148.056357,8.05686853 C148.056357,8.96038018 148.174259,10.4173078 147.67859,11.1800593 C146.944713,12.3073434 145.462521,12.1846295 144.927151,10.944256 C144.607132,10.2007537 144.687738,8.88458626 144.687738,8.05686853 C143.657903,8.46832124 142.830186,8.86172778 142.097511,9.74238095 Z M151.872521,36.5698194 C151.872521,36.5698194 149.053709,26.8248868 149.053709,26.8248868 C149.053709,26.8248868 148.106886,23.576576 148.106886,23.576576 C148.021468,23.2758064 147.837397,22.4300425 147.608812,22.251987 C147.362181,22.0619006 146.018343,22.1268669 145.650201,22.1328823 C144.800828,22.1497254 144.851357,22.283267 144.516901,23.4562682 C144.516901,23.4562682 143.570079,26.704579 143.570079,26.704579 C143.570079,26.704579 140.597273,36.9307428 140.597273,36.9307428 C140.597273,36.9307428 139.153579,42.2242865 139.153579,42.2242865 C139.153579,42.2242865 145.409585,42.2242865 145.409585,42.2242865 C145.410788,41.6853075 145.407179,41.0091776 145.736822,40.553211 C146.275801,39.8060995 147.457224,39.8662534 147.919206,40.6650972 C148.179071,41.1138454 148.175462,41.7226029 148.176665,42.2242865 C148.176665,42.2242865 153.470208,42.2242865 153.470208,42.2242865 C153.470208,42.2242865 151.872521,36.5698194 151.872521,36.5698194 Z" id="logo-compass" fill="#E52521"></path>
            </g>
        </g>
    </g>
</svg>