<svg width="100px" height="30px" viewBox="0 0 2011 632" version="1.1" xmlns="http://www.w3.org/2000/svg" xmlns:xlink="http://www.w3.org/1999/xlink">
    <!-- Generator: Sketch 49.3 (51167) - http://www.bohemiancoding.com/sketch -->
    <desc>Created with Sketch.</desc>
    <defs></defs>
    <g id="Page-1" stroke="none" stroke-width="1" fill="none" fill-rule="evenodd">
        <g id="logo" transform="translate(1.000000, 0.000000)">
            <path d="M1459,158 C1459,158 1459,524 1459,524 C1459,524 1415,524 1415,524 C1415,524 1415,158 1415,158 C1415,158 1459,158 1459,158 Z M1313,179 C1313,179 1313,259 1313,259 C1313,259 1365,259 1365,259 C1365,259 1365,298 1365,298 C1365,298 1313,298 1313,298 C1313,298 1313,439 1313,439 C1313,449.17 1310.66,472.66 1318.21,479.61 C1323.33,484.31 1332.38,484.99 1339,485 C1339,485 1365,485 1365,485 C1365,485 1365,524 1365,524 C1365,524 1309,523.15 1309,523.15 C1299.91,522.06 1290.16,519.89 1283,513.79 C1271.87,504.31 1270.2,492.66 1268.83,479 C1268.83,479 1268,470 1268,470 C1268,470 1268,298 1268,298 C1268,298 1223,298 1223,298 C1223,298 1223,259 1223,259 C1223,259 1268,259 1268,259 C1268,259 1268,179 1268,179 C1268,179 1313,179 1313,179 Z M461.65,492 C451.82,506.26 440.87,513.52 425,519.8 C410.96,525.35 396.97,527.02 382,527 C345.13,526.94 312.24,510.18 290.91,480 C280.51,465.27 273.92,446.58 270.4,429 C261.11,382.57 269.65,324.07 302.17,288 C321.39,266.68 352.29,253.04 381,253 C381,253 397,253 397,253 C409.38,253.15 427.3,258.3 438,264.46 C453.89,273.61 459.29,281.14 469,296 C469,296 469,259 469,259 C469,259 511,259 511,259 C511,259 511,419 511,419 C511,419 511,499 511,499 C511,499 510,518 510,518 C509.72,541.74 501.82,570.34 488.48,590 C469.75,617.61 432.37,630.95 400,631 C400,631 375,631 375,631 C375,631 358,629.08 358,629.08 C328.26,624.17 298.47,611.4 284.27,583 C279.64,573.75 277.83,563.23 277,553 C277,553 322,553 322,553 C322.64,566.73 331.59,576.94 343,583.79 C361.33,594.8 390.34,598.46 411,593.26 C417.22,591.69 423.43,589.31 429,586.13 C455,571.29 465.12,543.3 467.96,515 C467.96,515 467.96,506 467.96,506 C467.96,506 469,496 469,496 C469.06,490.67 469.46,485.15 468,480 C466.52,485.06 464.61,487.71 461.65,492 Z M1527.46,308 C1529.46,302.88 1534.25,294.44 1537.49,290 C1556.39,264.12 1593.03,253.05 1624,253 C1624,253 1648,253 1648,253 C1648,253 1658,253.93 1658,253.93 C1679.09,255.88 1701.73,260.88 1716.83,277.04 C1728.95,290.02 1731.9,301.93 1733.09,319 C1733.09,319 1734,329 1734,329 C1734,329 1734,472 1734,472 C1734.04,474.9 1734.09,476.12 1734.62,479 C1734.95,480.83 1735.46,483.35 1736.31,484.98 C1741.37,494.76 1752.83,489.69 1761,489 C1761,489 1761,524 1761,524 C1761,524 1748,528.33 1748,528.33 C1727.61,532.78 1700.64,530.82 1693.92,507 C1692.22,500.97 1692,497.15 1692,491 C1682.01,500.99 1673.77,509.43 1661,516.02 C1655.36,518.93 1643.1,523.81 1637,525.34 C1594.79,535.91 1532.21,532.12 1515.09,484 C1511.23,473.15 1510.98,463.29 1511,452 C1511.01,444.62 1512.2,437.13 1514.16,430 C1517.03,419.51 1522.43,410.74 1530.01,403 C1546.81,385.86 1565.52,381.54 1588,376.58 C1588,376.58 1628,369.42 1628,369.42 C1641.74,367.48 1660.59,365.83 1673,359.63 C1680.87,355.69 1687.36,350.05 1688.93,341 C1689.68,335.97 1689.43,333.95 1688.93,329 C1686.39,299.04 1655.92,291.96 1631,292 C1606.3,292.04 1576.42,299.36 1568.44,326 C1566.81,331.44 1566.05,336.34 1566,342 C1566,342 1521,342 1521,342 C1521.89,330.98 1523.42,318.33 1527.46,308 Z M1830.67,455 C1841.01,485.9 1874.91,491.04 1903,491 C1926.48,490.96 1960.79,482.98 1961.96,454 C1963.06,426.78 1932.24,417.42 1911,411.58 C1880.91,403.31 1861.14,402.83 1831,389.85 C1812.93,382.07 1796.91,368.44 1791.43,349 C1790.13,344.41 1789.06,336.78 1789,332 C1788.88,321.21 1790.06,309.97 1794.51,300 C1808.4,268.95 1848.74,253.05 1881,253 C1881,253 1901,253 1901,253 C1930.39,253.05 1966.43,263.23 1983.3,289 C1987.88,295.99 1990.91,303.02 1993.28,311 C1995.77,319.39 1996.99,328.27 1997,337 C1997,337 1953,337 1953,337 C1951.55,329.06 1951.12,324.16 1946.73,317 C1935,297.85 1910.11,291.76 1889,292 C1871.46,292.21 1845.27,297.87 1837.81,316 C1835.49,322.02 1835.53,326.94 1837.81,333 C1844.26,351.36 1870.92,358.6 1888,362.87 C1888,362.87 1910,368 1910,368 C1945.7,375.64 1995.12,385.41 2006.57,426 C2007.95,430.89 2008.94,436.92 2009,442 C2009.23,461.73 2007.16,477.89 1994.48,494 C1965.62,530.7 1901.6,535.12 1859,526.6 C1844.51,523.7 1830.23,518.99 1818,510.43 C1801.78,499.08 1791.34,483.04 1786.48,464 C1786.48,464 1783,440 1783,440 C1783,440 1828,440 1828,440 C1828.12,445.6 1828.9,449.69 1830.67,455 Z M41,259 C41,259 49.3,260.6 49.3,260.6 C49.3,260.6 55,275 55,275 C55,275 67,311 67,311 C67,311 103.67,420 103.67,420 C103.67,420 124,479 124,479 C124,479 143,420 143,420 C143,420 164.67,353 164.67,353 C164.67,353 178.98,310 178.98,310 C178.98,310 190.33,275 190.33,275 C190.33,275 195.84,260.6 195.84,260.6 C195.84,260.6 204,259 204,259 C204,259 242,259 242,259 C241,265.37 236.63,275.48 234.34,282 C234.34,282 216.42,331 216.42,331 C216.42,331 167.81,464 167.81,464 C167.81,464 151.69,508 151.69,508 C150.64,510.96 147.4,521.44 145.3,523.01 C143.63,524.26 140.04,524 138,524 C138,524 104,524 104,524 C95.18,523.83 95.24,517.47 92.42,510 C92.42,510 75,463 75,463 C75,463 63.05,431 63.05,431 C63.05,431 21.95,320 21.95,320 C21.95,320 8.19,283 8.19,283 C5.71,276.46 1.01,265.46 0,259 C0,259 41,259 41,259 Z M357,299.6 C321.57,317.57 313.58,357.88 314,394 C314,394 314.92,404 314.92,404 C317.66,438.27 330.8,474.54 367,485.28 C372.23,486.83 378.54,487.93 384,488 C398.94,488.17 411.72,486.8 425,479.13 C449.14,465.18 460.02,438.19 464.41,412 C464.41,412 466.82,385 466.82,385 C464.44,351.55 457.3,315.46 424,298.81 C419.14,296.38 412.37,294.34 407,293.43 C399.04,292.09 392.08,291.53 384,292.28 C373.55,293.82 366.7,294.69 357,299.6 Z M1675,394.8 C1665.53,397.7 1648.14,400.39 1638,401.72 C1620.39,404.04 1594.28,406.6 1579,415.46 C1572.97,418.97 1567.11,423.99 1563.48,430 C1553.34,446.8 1556.71,470.69 1573,482.37 C1585.11,491.05 1601.76,491.16 1616,491 C1643.31,490.68 1673,476.75 1684.69,451 C1687.43,444.96 1688.92,438.63 1689,432 C1689,432 1689,389 1689,389 C1689,389 1675,394.8 1675,394.8 Z M798,561 C798,561 798,588 798,588 C798,588 542,588 542,588 C542,588 542,561 542,561 C542,561 798,561 798,561 Z" id="logo-letters" stroke="#000000" fill="#000000"></path>
            <path d="M990.16,7.01 C995.14,-2.34 1008.56,-2.25 1013.56,7.01 C1017.22,13.79 1016,31.73 1016,40 C1023.42,40.67 1032.62,44.39 1039,48.21 C1062.26,62.13 1075.31,86.07 1075,113 C1074.86,125.05 1070.7,138.68 1064.55,149 C1061.59,153.96 1053.42,162.07 1053.6,167 C1053.6,167 1057.14,180 1057.14,180 C1057.14,180 1065.58,209 1065.58,209 C1065.58,209 1092.71,303 1092.71,303 C1092.71,303 1106,351 1106,351 C1106,351 1167,351 1167,351 C1173.77,351.08 1180.21,351.88 1184.28,358.02 C1190,366.65 1184.61,376.09 1175,378.18 C1169.23,379.44 1159.25,379 1153,379 C1153,379 1115,379 1115,379 C1115,379 1132.14,439 1132.14,439 C1132.14,439 1138.44,462 1138.44,462 C1138.44,462 1136.3,475 1136.3,475 C1136.3,475 1141,529 1141,529 C1141,529 1129,532 1129,532 C1129,532 1105.2,483.05 1105.2,483.05 C1105.2,483.05 1096.92,473.96 1096.92,473.96 C1096.92,473.96 1084.58,432 1084.58,432 C1084.58,432 1070,379 1070,379 C1070,379 1017,379 1017,379 C1017,383.51 1017.28,389.94 1014.86,393.89 C1011.31,399.72 1000.9,400.12 996.72,394.78 C993.67,390.87 994,383.74 994,379 C994,379 933,379 933,379 C933,379 916.42,438 916.42,438 C916.42,438 905.7,473.98 905.7,473.98 C905.7,473.98 897.35,483.05 897.35,483.05 C897.35,483.05 885.74,507 885.74,507 C885.74,507 874,532 874,532 C874,532 861,529 861,529 C861,529 864.09,498 864.09,498 C864.09,498 866.2,473 866.2,473 C866.2,473 864.2,462 864.2,462 C864.2,462 872.29,433 872.29,433 C872.29,433 888,379 888,379 C888,379 852,379 852,379 C845.96,379 837.57,379.45 832.01,377.01 C822.26,372.71 822.07,360.64 830.04,354.43 C834.31,351.1 840.81,351.01 846,351 C846,351 887,351 887,351 C889.66,350.99 893.37,351.33 895.44,349.4 C897.42,347.56 898.91,340.79 899.71,338 C899.71,338 907.58,311 907.58,311 C907.58,311 938.29,205 938.29,205 C938.29,205 946.71,176 946.71,176 C947.51,173.22 949.85,166.57 949.22,164 C949.22,164 939.01,149 939.01,149 C932.9,138.68 929.02,127.04 929,115 C928.98,104.27 928.66,99.61 932.03,89 C939.37,65.91 963.09,42.25 988,40 C988,32.44 986.99,12.96 990.16,7.01 Z M966.47,81.01 C949.14,101.84 953.24,134.75 976,149.9 C985.96,156.53 993.5,157.13 1005,157 C1036.39,156.63 1055.1,123.13 1045.13,95 C1040,80.5 1029.61,72.78 1016,67 C1016,74.51 1016.98,86.62 1012.86,92.96 C1006.76,102.33 994.44,101.31 989.99,91 C987.33,84.82 988,73.88 988,67 C979.44,70.42 972.56,73.69 966.47,81.01 Z M1047.72,304 C1047.72,304 1024.29,223 1024.29,223 C1024.29,223 1016.42,196 1016.42,196 C1015.71,193.5 1014.18,186.47 1012.28,184.99 C1010.23,183.41 999.06,183.95 996,184 C988.94,184.14 989.36,185.25 986.58,195 C986.58,195 978.71,222 978.71,222 C978.71,222 954,307 954,307 C954,307 942,351 942,351 C942,351 994,351 994,351 C994.01,346.52 993.98,340.9 996.72,337.11 C1001.2,330.9 1011.02,331.4 1014.86,338.04 C1017.02,341.77 1016.99,346.83 1017,351 C1017,351 1061,351 1061,351 C1061,351 1047.72,304 1047.72,304 Z" id="logo-compass" fill="#FF0000"></path>
        </g>
    </g>
</svg>